<svg xmlns="http://www.w3.org/2000/svg" xmlns:xlink="http://www.w3.org/1999/xlink" width="686.793" height="702.815" viewBox="0 0 686.793 702.815">
  <defs>
    <style>
      .cls-1 {
        fill: url(#linear-gradient);
      }

      .cls-2 {
        fill: url(#linear-gradient-2);
      }
    </style>
    <linearGradient id="linear-gradient" x1="0.931" y1="0.122" x2="1" y2="0.859" gradientUnits="objectBoundingBox">
      <stop offset="0" stop-color="#212e51"/>
      <stop offset="1" stop-color="#131b30"/>
    </linearGradient>
    <linearGradient id="linear-gradient-2" x1="-0.073" y1="0.432" x2="1.187" y2="0.992" xlink:href="#linear-gradient"/>
  </defs>
  <g id="Grupo_2422" data-name="Grupo 2422" transform="translate(-390.077 -1524.246)">
    <path id="Caminho_5089" data-name="Caminho 5089" class="cls-1" d="M184.412,107.407c-5.177,35.115-11.4,57.02-34.691,80.822-20.882,21.344-49.835,32.62-81.869,37.361C19,232.8-.508,261.141,2.723,301.084c3.206,39.631,36.014,70.181,75.72,68.06,38.995-2.071,69.4-30.425,68.123-73.586-.836-28.8,7.073-62.534,25.722-85.487,21.281-26.171,55.349-46.829,91.687-48.762l-.075-.075c45.195-3.892,67.911-31.186,64.68-71.241-3.193-39.644-36.014-70.181-75.72-68.073a72.974,72.974,0,0,0-50.746,24.475C190.487,59.53,188.84,77.244,184.412,107.407Z" transform="translate(387.697 1857.813)"/>
    <path id="Caminho_5087" data-name="Caminho 5087" class="cls-2" d="M253.65,319.328s-44.7-41.693-88.857-4.375c-27.256,23.039-65.625,26.137-91.807,2.431a66.357,66.357,0,0,1-22.056-49.21c0-.317.011-.622.023-.938-.113-17.41,7.122-34.277,19.987-47.978,38.674-41.207-5.313-87.308-5.313-87.308A66.544,66.544,0,0,1,163.55,42.018c24.453,24.328,29.642,59.554,4.725,89.139-18.97,22.531-31.744,56.706-5.641,84.889,39.737,38.55,78.886,9.474,91.6.633,31.643-22.011,65.331-19.818,89.626,5.008a66.553,66.553,0,0,1-90.213,97.641Z" transform="matrix(0.875, 0.485, -0.485, 0.875, 770.499, 1480.162)"/>
  </g>
</svg>
