<svg xmlns="http://www.w3.org/2000/svg" xmlns:xlink="http://www.w3.org/1999/xlink" width="1977.759" height="543.251" viewBox="0 0 1977.759 543.251">
  <defs>
    <style>
      .cls-1 {
        fill: #172039;
      }

      .cls-2, .cls-3, .cls-4, .cls-5 {
        opacity: 0.4;
      }

      .cls-2 {
        fill: url(#linear-gradient);
      }

      .cls-3 {
        fill: url(#linear-gradient-2);
      }

      .cls-4 {
        fill: url(#linear-gradient-3);
      }

      .cls-5 {
        fill: url(#linear-gradient-4);
      }
    </style>
    <linearGradient id="linear-gradient" x1="0.171" y1="-0.095" x2="0.471" y2="1.395" gradientUnits="objectBoundingBox">
      <stop offset="0" stop-color="#212e51"/>
      <stop offset="1"/>
    </linearGradient>
    <linearGradient id="linear-gradient-2" x1="0.591" y1="0.054" x2="0.755" y2="1.271" gradientUnits="objectBoundingBox">
      <stop offset="0" stop-color="#212e51"/>
      <stop offset="1" stop-color="#06080e"/>
    </linearGradient>
    <linearGradient id="linear-gradient-3" x1="0.37" y1="0.23" x2="0.5" y2="1.181" xlink:href="#linear-gradient"/>
    <linearGradient id="linear-gradient-4" x1="0.5" x2="0.402" y2="1.904" gradientUnits="objectBoundingBox">
      <stop offset="0" stop-color="#1c2745"/>
      <stop offset="1" stop-color="#06080e"/>
    </linearGradient>
  </defs>
  <g id="Grupo_2411" data-name="Grupo 2411" transform="translate(0 43.371)">
    <rect id="Retângulo_1820" data-name="Retângulo 1820" class="cls-1" width="1920" height="295" transform="translate(0 78)"/>
    <g id="Grupo_2400" data-name="Grupo 2400">
      <path id="Caminho_5087" data-name="Caminho 5087" class="cls-2" d="M253.65,319.328s-44.7-41.693-88.857-4.375c-27.256,23.039-65.625,26.137-91.807,2.431a66.357,66.357,0,0,1-22.056-49.21c0-.317.011-.622.023-.938-.113-17.41,7.122-34.277,19.987-47.978,38.674-41.207-5.313-87.308-5.313-87.308A66.544,66.544,0,0,1,163.55,42.018c24.453,24.328,29.642,59.554,4.725,89.139-18.97,22.531-31.744,56.706-5.641,84.889,39.737,38.55,78.886,9.474,91.6.633,31.643-22.011,65.331-19.818,89.626,5.008a66.553,66.553,0,0,1-90.213,97.641Z" transform="matrix(0.875, 0.485, -0.485, 0.875, 1038.498, 31.162)"/>
      <path id="Caminho_5088" data-name="Caminho 5088" class="cls-3" d="M177.641,412.041c29.481-29.021,33.919-81.339,5.235-112.626-30.139-37.1-29.435-81.048.092-118.213a83.459,83.459,0,1,0-129,0c29.526,37.164,30.246,81.11.092,118.213C25.371,330.7,29.81,383.02,59.291,412.041a84.147,84.147,0,0,0,118.351,0Z" transform="matrix(0.766, -0.643, 0.643, 0.766, 1542.359, 57.453)"/>
      <path id="Caminho_5089" data-name="Caminho 5089" class="cls-4" d="M184.412,107.407c-5.177,35.115-11.4,57.02-34.691,80.822-20.882,21.344-49.835,32.62-81.869,37.361C19,232.8-.508,261.141,2.723,301.084c3.206,39.631,36.014,70.181,75.72,68.06,38.995-2.071,69.4-30.425,68.123-73.586-.836-28.8,7.073-62.534,25.722-85.487,21.281-26.171,55.349-46.829,91.687-48.762l-.075-.075c45.195-3.892,67.911-31.186,64.68-71.241-3.193-39.644-36.014-70.181-75.72-68.073a72.974,72.974,0,0,0-50.746,24.475C190.487,59.53,188.84,77.244,184.412,107.407Z" transform="translate(1250.697 -65.188)"/>
      <circle id="Elipse_2998" data-name="Elipse 2998" class="cls-5" cx="82.109" cy="82.109" r="82.109" transform="translate(1473.355 221.918)"/>
    </g>
  </g>
</svg>
