<svg xmlns="http://www.w3.org/2000/svg" width="117.406" height="132" viewBox="0 0 117.406 132">
  <defs>
    <style>
      .cls-1 {
        fill: #dc825b;
      }
    </style>
  </defs>
  <g id="Grupo_589" data-name="Grupo 589" transform="translate(-2.489)">
    <circle id="Elipse_767" data-name="Elipse 767" class="cls-1" cx="9.506" cy="9.506" r="9.506" transform="translate(27.167 56.104)"/>
    <circle id="Elipse_768" data-name="Elipse 768" class="cls-1" cx="8.727" cy="8.727" r="8.727" transform="translate(72.518 80.416)"/>
    <circle id="Elipse_769" data-name="Elipse 769" class="cls-1" cx="9.506" cy="9.506" r="9.506" transform="translate(2.855 27.429)"/>
    <circle id="Elipse_770" data-name="Elipse 770" class="cls-1" cx="9.662" cy="9.662" r="9.662" transform="translate(51.791)"/>
    <circle id="Elipse_771" data-name="Elipse 771" class="cls-1" cx="10.442" cy="10.442" r="10.442" transform="translate(99.011 27.429)"/>
    <ellipse id="Elipse_772" data-name="Elipse 772" class="cls-1" cx="9.502" cy="8.9" rx="9.502" ry="8.9" transform="translate(2.918 83.155)"/>
    <circle id="Elipse_773" data-name="Elipse 773" class="cls-1" cx="9.662" cy="9.662" r="9.662" transform="translate(51.791 112.675)"/>
    <circle id="Elipse_774" data-name="Elipse 774" class="cls-1" cx="8.727" cy="8.727" r="8.727" transform="translate(52.726 47.688)"/>
    <path id="Caminho_2235" data-name="Caminho 2235" class="cls-1" d="M25.273,32.5c-.623,4.364-1.4,7.169-4.364,10.13-2.649,2.649-6.234,4.052-10.286,4.675-6.078.935-8.571,4.364-8.1,9.351a9.261,9.261,0,0,0,9.506,8.571c4.831-.312,8.727-3.74,8.571-9.195a16.186,16.186,0,0,1,3.273-10.6,15.955,15.955,0,0,1,11.377-6.078h0c5.61-.468,8.416-3.9,8.1-8.883A9.261,9.261,0,0,0,33.844,21.9a9,9,0,0,0-6.39,3.117C25.9,26.421,25.741,28.6,25.273,32.5Z" transform="translate(0.024 11.449)"/>
    <path id="Caminho_2236" data-name="Caminho 2236" class="cls-1" d="M78.182,63.545s-6.234-5.766-12.312-.623c-3.74,3.117-9.039,3.584-12.623.312a9.77,9.77,0,0,1-3.117-6.857V56.22a9.231,9.231,0,0,1,2.805-6.545c5.3-5.61-.779-12-.779-12a9.277,9.277,0,0,1,.468-12.312,9.124,9.124,0,0,1,12.935,0c3.429,3.429,4.052,8.26.623,12.312-2.649,3.117-4.364,7.792-.779,11.688,5.455,5.3,10.909,1.247,12.623.156,4.364-2.961,9.039-2.805,12.312.623a9.125,9.125,0,0,1-.156,12.935C87.221,66.35,81.766,66.506,78.182,63.545Z" transform="translate(26.596 11.883)"/>
    <path id="Caminho_2237" data-name="Caminho 2237" class="cls-1" d="M49.452,82A8.6,8.6,0,0,0,49.92,70.47c-3.117-3.74-2.961-8.26,0-12A8.571,8.571,0,0,0,37.14,47.093a8.585,8.585,0,0,0-.623,11.377c2.961,3.74,3.117,8.26,0,12-2.961,3.117-2.494,8.571.468,11.532A8.484,8.484,0,0,0,43.062,84.5,8.227,8.227,0,0,0,49.452,82Z" transform="translate(17.923 24.127)"/>
    <path id="Caminho_2238" data-name="Caminho 2238" class="cls-1" d="M80.867,12.089a8.883,8.883,0,0,0-5.61-3.74c-4.208-.779-9.039,1.87-10.13,6.234-2.338,7.169-5.143,7.481-10.753,7.169a18.782,18.782,0,0,0-2.961,0H48.452c-5.61.312-8.571.156-10.753-7.169-1.091-4.364-5.922-7.013-10.13-6.234a8.882,8.882,0,0,0-5.61,3.74,8.783,8.783,0,0,0,8.1,13.714c7.792-.312,10.13,3.117,12.312,7.636a11.236,11.236,0,0,0,6.234,5.766,1.317,1.317,0,0,0,.935.312,7.587,7.587,0,0,0,1.87.156,7.587,7.587,0,0,0,1.87-.156,2.215,2.215,0,0,0,.935-.312,10.769,10.769,0,0,0,6.234-5.766c2.182-4.519,4.519-7.948,12.312-7.636a8.783,8.783,0,0,0,8.1-13.714Z" transform="translate(10.04 3.807)"/>
    <path id="Caminho_2239" data-name="Caminho 2239" class="cls-1" d="M33.44,88.347c2.961-2.961,3.429-8.26.468-11.377-3.117-3.74-2.961-8.26,0-12A8.53,8.53,0,0,0,27.362,51.1a7.9,7.9,0,0,0-5.922,2.493,8.585,8.585,0,0,0-.623,11.377c2.961,3.74,3.117,8.26,0,12-2.961,3.117-2.494,8.416.468,11.377a8.484,8.484,0,0,0,6.078,2.494A8.234,8.234,0,0,0,33.44,88.347Z" transform="translate(9.155 27.757)"/>
    <path id="Caminho_2240" data-name="Caminho 2240" class="cls-1" d="M59.922,86.278a9,9,0,0,0,10.6-5.922,9.606,9.606,0,0,1,10.753-6.7A9.06,9.06,0,0,0,91.247,66.8a8.726,8.726,0,0,0-1.091-6.857,8.9,8.9,0,0,0-5.61-4.052,9.079,9.079,0,0,0-10.6,5.922c-1.714,4.831-3.429,8.571-10.13,6.857a8.885,8.885,0,0,0-10.753,6.7,10.263,10.263,0,0,0,1.091,6.857A9.225,9.225,0,0,0,59.922,86.278Z" transform="translate(28.18 30.294)"/>
  </g>
</svg>
