<svg xmlns="http://www.w3.org/2000/svg" width="180" height="41.773" viewBox="0 0 180 41.773">
  <defs>
    <style>
      .cls-1, .cls-3 {
        fill: #dc825b;
      }

      .cls-2 {
        fill: #fff;
      }

      .cls-3 {
        font-size: 10px;
        font-family: Montserrat-Medium, Montserrat;
        font-weight: 500;
      }
    </style>
  </defs>
  <g id="Grupo_2405" data-name="Grupo 2405" transform="translate(-213 -24.227)">
    <g id="logo-beegin.tech" transform="translate(210.8 23.727)">
      <g id="Grupo_581" data-name="Grupo 581" transform="translate(2.2 0.5)">
        <circle id="Elipse_767" data-name="Elipse 767" class="cls-1" cx="2.138" cy="2.138" r="2.138" transform="translate(5.644 12.62)"/>
        <circle id="Elipse_768" data-name="Elipse 768" class="cls-1" cx="1.963" cy="1.963" r="1.963" transform="translate(15.846 18.089)"/>
        <circle id="Elipse_769" data-name="Elipse 769" class="cls-1" cx="2.138" cy="2.138" r="2.138" transform="translate(0.175 6.17)"/>
        <circle id="Elipse_770" data-name="Elipse 770" class="cls-1" cx="2.174" cy="2.174" r="2.174" transform="translate(11.183)"/>
        <circle id="Elipse_771" data-name="Elipse 771" class="cls-1" cx="2.349" cy="2.349" r="2.349" transform="translate(21.805 6.17)"/>
        <ellipse id="Elipse_772" data-name="Elipse 772" class="cls-1" cx="2.5" cy="2" rx="2.5" ry="2" transform="translate(0 18.773)"/>
        <circle id="Elipse_773" data-name="Elipse 773" class="cls-1" cx="2.174" cy="2.174" r="2.174" transform="translate(11.183 25.346)"/>
        <circle id="Elipse_774" data-name="Elipse 774" class="cls-1" cx="1.963" cy="1.963" r="1.963" transform="translate(11.393 10.727)"/>
        <path id="Caminho_2235" data-name="Caminho 2235" class="cls-1" d="M7.6,24.282a3.488,3.488,0,0,1-.982,2.279A4.047,4.047,0,0,1,4.3,27.612c-1.367.21-1.928.982-1.823,2.1a2.083,2.083,0,0,0,2.138,1.928,1.957,1.957,0,0,0,1.928-2.068,3.641,3.641,0,0,1,.736-2.384,3.589,3.589,0,0,1,2.559-1.367h0a1.772,1.772,0,0,0,1.823-2A2.083,2.083,0,0,0,9.523,21.9a2.025,2.025,0,0,0-1.437.7C7.736,22.915,7.7,23.405,7.6,24.282Z" transform="translate(-2.372 -14.396)"/>
        <path id="Caminho_2236" data-name="Caminho 2236" class="cls-1" d="M56.375,31.869a2.119,2.119,0,0,0-2.769-.14,2.142,2.142,0,0,1-2.84.07,2.2,2.2,0,0,1-.7-1.542v-.035a2.076,2.076,0,0,1,.631-1.472c1.192-1.262-.175-2.7-.175-2.7a2.087,2.087,0,0,1,.105-2.769,2.052,2.052,0,0,1,2.91,0,1.946,1.946,0,0,1,.14,2.769,1.9,1.9,0,0,0-.175,2.629,2.08,2.08,0,0,0,2.84.035,2.05,2.05,0,0,1,2.734,3.05A1.992,1.992,0,0,1,56.375,31.869Z" transform="translate(-33.273 -14.901)"/>
        <path id="Caminho_2237" data-name="Caminho 2237" class="cls-1" d="M37.876,53.014a1.935,1.935,0,0,0,.105-2.594,2.033,2.033,0,0,1,0-2.7,1.928,1.928,0,0,0-2.875-2.559,1.931,1.931,0,0,0-.14,2.559,2.033,2.033,0,0,1,0,2.7,1.936,1.936,0,0,0,.105,2.594,1.908,1.908,0,0,0,1.367.561A1.851,1.851,0,0,0,37.876,53.014Z" transform="translate(-23.187 -29.14)"/>
        <path id="Caminho_2238" data-name="Caminho 2238" class="cls-1" d="M34,9.085a1.973,1.973,0,0,0-3.541.561c-.526,1.613-1.157,1.683-2.419,1.613a4.225,4.225,0,0,0-.666,0H26.71c-1.262.07-1.928.035-2.419-1.613a1.973,1.973,0,0,0-3.541-.561,1.976,1.976,0,0,0,1.823,3.085,2.5,2.5,0,0,1,2.769,1.718,2.528,2.528,0,0,0,1.4,1.3.3.3,0,0,0,.21.07,2.542,2.542,0,0,0,.841,0,.5.5,0,0,0,.21-.07,2.422,2.422,0,0,0,1.4-1.3,2.5,2.5,0,0,1,2.769-1.718A1.976,1.976,0,0,0,34,9.085Z" transform="translate(-14.02 -5.509)"/>
        <path id="Caminho_2239" data-name="Caminho 2239" class="cls-1" d="M22.106,59.479a1.891,1.891,0,0,0,.105-2.559,2.033,2.033,0,0,1,0-2.7,1.919,1.919,0,0,0-1.472-3.12,1.776,1.776,0,0,0-1.332.561,1.931,1.931,0,0,0-.14,2.559,2.033,2.033,0,0,1,0,2.7,1.9,1.9,0,0,0,1.472,3.12A1.852,1.852,0,0,0,22.106,59.479Z" transform="translate(-12.991 -33.361)"/>
        <path id="Caminho_2240" data-name="Caminho 2240" class="cls-1" d="M54.467,62.534A2.024,2.024,0,0,0,56.851,61.2a2.161,2.161,0,0,1,2.419-1.507,2.038,2.038,0,0,0,2.244-1.542,1.963,1.963,0,0,0-.245-1.542,2,2,0,0,0-1.262-.911,2.042,2.042,0,0,0-2.384,1.332c-.386,1.087-.771,1.928-2.279,1.542a2,2,0,0,0-2.419,1.507,2.309,2.309,0,0,0,.245,1.542A2.075,2.075,0,0,0,54.467,62.534Z" transform="translate(-35.116 -36.311)"/>
      </g>
      <g id="Grupo_582" data-name="Grupo 582" transform="translate(36.486 4.847)">
        <path id="Caminho_2241" data-name="Caminho 2241" class="cls-2" d="M103.19,21.489a4.8,4.8,0,0,1,4.382-2.349c3.3,0,5.574,2.91,5.574,7.327,0,5.259-3.05,7.748-6.065,7.748a4.63,4.63,0,0,1-4.277-2.454h-.07l-.14,2.174H100c.035-.982.105-2.559.105-3.856V12.9h3.05v8.589h.035Zm-.07,6.731a3.421,3.421,0,0,0,3.3,3.576c2.349,0,3.611-2.068,3.611-5.153,0-2.734-1.192-5.013-3.576-5.013a3.623,3.623,0,0,0-3.33,3.786Z" transform="translate(-100 -12.9)"/>
        <path id="Caminho_2242" data-name="Caminho 2242" class="cls-2" d="M156.764,44.9a11.564,11.564,0,0,1-4.592.876c-4.347,0-6.871-2.91-6.871-7.327,0-4.312,2.419-7.748,6.485-7.748s5.679,3.365,5.679,6.941c0,.491-.035.911-.07,1.3H148.21c.07,3.26,2.1,4.487,4.382,4.487a9.142,9.142,0,0,0,3.646-.666Zm-2.138-8.1c.035-1.718-.666-3.891-3.015-3.891-2.244,0-3.155,2.209-3.33,3.891Z" transform="translate(-129.419 -24.46)"/>
        <path id="Caminho_2243" data-name="Caminho 2243" class="cls-2" d="M199.364,44.9a11.564,11.564,0,0,1-4.592.876c-4.347,0-6.871-2.91-6.871-7.327,0-4.312,2.419-7.748,6.485-7.748s5.679,3.365,5.679,6.941c0,.491-.035.911-.07,1.3H190.81c.07,3.26,2.1,4.487,4.382,4.487a9.142,9.142,0,0,0,3.646-.666Zm-2.138-8.1c.035-1.718-.666-3.891-3.015-3.891-2.244,0-3.155,2.209-3.33,3.891Z" transform="translate(-157.085 -24.46)"/>
        <path id="Caminho_2244" data-name="Caminho 2244" class="cls-2" d="M243.471,31.116c-.07,1.017-.14,2.244-.14,4.172v8.238c0,2.875-.245,8.2-7.081,8.2a9.128,9.128,0,0,1-4.557-1.052l.666-2.349a7.8,7.8,0,0,0,3.891,1.017c2.349,0,4.031-1.3,4.031-4.592v-1.4h-.035a4.536,4.536,0,0,1-4,2.138c-3.4,0-5.749-3.015-5.749-7.046,0-4.908,2.945-7.642,6.1-7.642a4.188,4.188,0,0,1,3.961,2.244h.035l.14-1.928h2.734Zm-3.155,5.609a3.217,3.217,0,0,0-3.12-3.471c-2.1,0-3.576,2-3.576,5.083,0,2.84,1.3,4.838,3.541,4.838,1.578,0,3.155-1.192,3.155-3.611Z" transform="translate(-184.751 -24.525)"/>
        <path id="Caminho_2245" data-name="Caminho 2245" class="cls-2" d="M281.253,18.741a1.694,1.694,0,0,1-1.753-1.753,1.731,1.731,0,0,1,1.788-1.788,1.7,1.7,0,0,1,1.753,1.788A1.723,1.723,0,0,1,281.253,18.741Zm1.507,16.687h-3.05V20.949h3.05Z" transform="translate(-216.573 -14.394)"/>
        <path id="Caminho_2246" data-name="Caminho 2246" class="cls-2" d="M313.625,45.559h-3.05V37.075c0-2.033-.666-3.786-2.734-3.786a3.238,3.238,0,0,0-3.085,3.541v8.694h-3.05V35.182c0-1.613-.035-2.84-.105-4.067h2.664l.14,2.138h.07a4.946,4.946,0,0,1,4.382-2.454c2.244,0,4.768,1.472,4.768,5.925Z" transform="translate(-230.926 -24.525)"/>
        <path id="Caminho_2247" data-name="Caminho 2247" class="cls-1" d="M347.7,63.9a2,2,0,0,1,1.963-2.1,2.091,2.091,0,1,1-1.963,2.1Z" transform="translate(-260.864 -44.657)"/>
        <path id="Caminho_2248" data-name="Caminho 2248" class="cls-2" d="M367.333,22.447l3.015-.947v3.576h3.436v2.279h-3.436v7.292c0,1.788.561,2.664,1.823,2.664a4.37,4.37,0,0,0,1.332-.175l.105,2.349a6.619,6.619,0,0,1-2.349.351,3.7,3.7,0,0,1-2.84-1.087c-.736-.771-1.087-2-1.087-3.891v-7.5H365.3V25.076h2.033Z" transform="translate(-272.294 -18.485)"/>
        <path id="Caminho_2249" data-name="Caminho 2249" class="cls-2" d="M407.664,44.9a11.564,11.564,0,0,1-4.592.876c-4.347,0-6.871-2.91-6.871-7.327,0-4.312,2.419-7.748,6.486-7.748s5.679,3.365,5.679,6.941c0,.491-.035.911-.07,1.3H399.11c.07,3.26,2.1,4.487,4.382,4.487a9.142,9.142,0,0,0,3.646-.666Zm-2.138-8.1c.035-1.718-.666-3.891-3.015-3.891-2.244,0-3.155,2.209-3.33,3.891Z" transform="translate(-292.362 -24.46)"/>
        <path id="Caminho_2250" data-name="Caminho 2250" class="cls-2" d="M449.522,45.1a9.212,9.212,0,0,1-3.716.736c-4.172,0-6.906-2.84-6.906-7.362,0-4.382,2.84-7.677,7.467-7.677a7.674,7.674,0,0,1,3.225.666l-.6,2.349a5.935,5.935,0,0,0-2.594-.561c-2.84,0-4.417,2.314-4.417,5.153,0,3.155,1.858,5.048,4.382,5.048a6.938,6.938,0,0,0,2.734-.561Z" transform="translate(-320.093 -24.525)"/>
        <path id="Caminho_2251" data-name="Caminho 2251" class="cls-2" d="M490.719,33.934h-3.05V25.485c0-2.068-.7-3.786-2.734-3.786a3.192,3.192,0,0,0-3.085,3.4v8.834H478.8V12.9h3.05v8.554h.035a4.877,4.877,0,0,1,4.137-2.279c2.174,0,4.7,1.472,4.7,6.03Z" transform="translate(-346.005 -12.9)"/>
      </g>
    </g>
    <text id="beta" class="cls-3" transform="translate(369 63)"><tspan x="0" y="0">beta</tspan></text>
  </g>
</svg>
